<svg xmlns="http://www.w3.org/2000/svg" width="3.6in" height="3.6in" data-name="Layer 1" viewBox="0 0 256 256"><path fill="#6b1e74" d="M127.9 2A126 126 0 1 0 254 128.1 126 126 0 0 0 127.9 2zm34.9 173.6c-11.5 0-19.2-4.6-21.4-14.2h-.8c-5.1 9.4-17 14.2-28.6 14.2-18.4 0-30.6-10.6-30.6-35.8 0-29.4 16.8-58.2 52-58.2 13.1 0 23.7 4 30.1 8.6l-7.4 55.2c-1.8 11.8 2.6 15.7 10.1 15.7 15.2 0 36.3-16.2 36.3-51.4 0-44-33.9-63.5-71.5-63.5-52 0-84.6 35.5-84.6 86.2 0 48 29.6 77.3 77.6 77.3 19.5 0 39.5-4.8 53-13.3 3 1.8 5.9 7 6.6 11-15.8 10.4-39.4 16-61.3 16-55 0-90.7-34.9-90.7-90.1 0-59.7 39.2-100.8 100.3-100.8 48.2 0 85.1 26.9 85.1 77-.1 45.3-30.7 66.1-54.2 66.1z"/><path fill="#6b1e74" d="M146.4 98.7l-7 47.9c-4.8 9-14 13.4-23.2 13.4-10.8 0-17.5-6-17.5-22.1 0-19 9.4-42.3 33.8-42.3 5.3.1 10.9 1.1 13.9 3.1z"/></svg>