<svg xmlns="http://www.w3.org/2000/svg" width="3.6in" height="3.6in" data-name="Layer 1" viewBox="0 0 256 256"><path fill="#6b1e74" d="M222.7 44.5a131 131 0 0 0-16-15.2 121.9 121.9 0 0 0-28.5-16.9 135.6 135.6 0 0 0-16-5.8 127.4 127.4 0 0 0-68.1 0 135.6 135.6 0 0 0-16 5.8 121.8 121.8 0 0 0-28.4 16.9 130.8 130.8 0 0 0-16 15.2 126.1 126.1 0 0 0 0 166.8 130.1 130.1 0 0 0 13.4 13.1 125.8 125.8 0 0 0 163.6-1.3 119.9 119.9 0 0 0 12-11.8 126.1 126.1 0 0 0 0-166.8zM94.2 39.1h68.1v39.2H94.2zM162.3 215H94.2v-84.1h68.1zm60.4-53.4h-44.4v-16h28.5v-35.3h-1.6v10.6h-11.6v-10.6H49.7v35.3h28.5v16H33.7V94.3h189z"/></svg>