<svg xmlns="http://www.w3.org/2000/svg"><symbol id="logo" viewBox="0 0 256 256"><path fill="none" stroke="#2e2a25" stroke-miterlimit="10" stroke-width="7.79" d="M215.5 206.4s9.2 18.8 20.8 28.5c0 0-24.3.4-39.3-11.8a117.6 117.6 0 1 1 18.6-16.7z"/><path fill="#2e2a25" d="M107.8 29.3a97 97 0 0 0-12.6 3.4L172 218.2a96.9 96.9 0 0 0 11.4-6.5 100.6 100.6 0 0 0-75.6-182.4zm5.1 12.3a87.7 87.7 0 0 1 65.4 157.9zm-17 90.6a65.5 65.5 0 0 1-8.7 12.5 66.2 66.2 0 0 1 14.9 2.6 66.1 66.1 0 0 1 41.2 35.3l16.7 40.6a102.7 102.7 0 0 1-12.6 3.4h-.1L133.5 193l-1-2.7-1.2-2.7A53.1 53.1 0 0 0 64.8 161l.6-.3-16.1 6.7 1 1.9a87.2 87.2 0 0 0 17.7 23 86 86 0 0 0 10.6 8.4 86.6 86.6 0 0 0 11.3 6.5v.2l-2.5 6-.3.7-2.1 5-4.6-2.3-.6-.3-5-2.9-1.2-.7A99.3 99.3 0 0 1 41 179l-2.4-4.4-1.2-2.3-.7-1.4-1.9-4.3v-.3c-.6-1.5-1.2-3-1.7-4.5l-.5-1.5-.8-2.5c-.5-1.6-.9-3.2-1.4-4.8a99.5 99.5 0 0 1-.8-46.9l.3-1.4c.4-1.9.9-3.7 1.5-5.6l.2-.6c.5-1.7 1-3.3 1.6-4.9l12 5a87 87 0 0 0-3.4 12.6 84.9 84.9 0 0 0-1.8 13.5 86.3 86.3 0 0 0 3.8 28.7l.6 2 11.7-4.8.6-.2 1.6-.6 1.6-.7.6-.3A53.1 53.1 0 0 0 88 83.2l-1-2.7-1.2-2.7-14-33.6a100.8 100.8 0 0 1 11.3-6.5l16.8 40.7a65.5 65.5 0 0 1 1.3 40.8 64.9 64.9 0 0 1-5.4 13.1z"/></symbol><symbol id="speech-center" viewBox="0 0 256 256"><path fill="none" stroke="#2e2a25" stroke-miterlimit="10" stroke-width="9.39" d="M245.5 62.1v90.6a33.1 33.1 0 0 1-33 33h-60.7L128 227l-23.8-41.3H43.5a33.1 33.1 0 0 1-33-33V62.1a33.1 33.1 0 0 1 33-33h169a33.1 33.1 0 0 1 33 33z"/></symbol><symbol id="speech-left" viewBox="0 0 256 256"><path fill="none" stroke="#2e2a25" stroke-miterlimit="10" stroke-width="8.52" d="M10.5 199.1h205a30.1 30.1 0 0 0 30-30V86.9a30.1 30.1 0 0 0-30-30H62.2a30.1 30.1 0 0 0-30 30v74.7z"/></symbol><symbol id="speech-right" viewBox="0 0 256 256"><path fill="none" stroke="#2e2a25" stroke-miterlimit="10" stroke-width="8.52" d="M245.5 199.1h-205a30.1 30.1 0 0 1-30-30V86.9a30.1 30.1 0 0 1 30-30h153.3a30.1 30.1 0 0 1 30 30v74.7z"/></symbol></svg>