<svg xmlns="http://www.w3.org/2000/svg"><symbol id="email" viewBox="0 0 256 256"><path fill="#6b1e74" d="M127.9 2A126 126 0 1 0 254 128.1 126 126 0 0 0 127.9 2zm34.9 173.6c-11.5 0-19.2-4.6-21.4-14.2h-.8c-5.1 9.4-17 14.2-28.6 14.2-18.4 0-30.6-10.6-30.6-35.8 0-29.4 16.8-58.2 52-58.2 13.1 0 23.7 4 30.1 8.6l-7.4 55.2c-1.8 11.8 2.6 15.7 10.1 15.7 15.2 0 36.3-16.2 36.3-51.4 0-44-33.9-63.5-71.5-63.5-52 0-84.6 35.5-84.6 86.2 0 48 29.6 77.3 77.6 77.3 19.5 0 39.5-4.8 53-13.3 3 1.8 5.9 7 6.6 11-15.8 10.4-39.4 16-61.3 16-55 0-90.7-34.9-90.7-90.1 0-59.7 39.2-100.8 100.3-100.8 48.2 0 85.1 26.9 85.1 77-.1 45.3-30.7 66.1-54.2 66.1z"/><path fill="#6b1e74" d="M146.4 98.7l-7 47.9c-4.8 9-14 13.4-23.2 13.4-10.8 0-17.5-6-17.5-22.1 0-19 9.4-42.3 33.8-42.3 5.3.1 10.9 1.1 13.9 3.1z"/></symbol><symbol id="fax" viewBox="0 0 256 256"><path fill="#6b1e74" d="M222.7 44.5a131 131 0 0 0-16-15.2 121.9 121.9 0 0 0-28.5-16.9 135.6 135.6 0 0 0-16-5.8 127.4 127.4 0 0 0-68.1 0 135.6 135.6 0 0 0-16 5.8 121.8 121.8 0 0 0-28.4 16.9 130.8 130.8 0 0 0-16 15.2 126.1 126.1 0 0 0 0 166.8 130.1 130.1 0 0 0 13.4 13.1 125.8 125.8 0 0 0 163.6-1.3 119.9 119.9 0 0 0 12-11.8 126.1 126.1 0 0 0 0-166.8zM94.2 39.1h68.1v39.2H94.2zM162.3 215H94.2v-84.1h68.1zm60.4-53.4h-44.4v-16h28.5v-35.3h-1.6v10.6h-11.6v-10.6H49.7v35.3h28.5v16H33.7V94.3h189z"/></symbol><symbol id="logo" viewBox="0 0 256 256"><path fill="none" stroke="#2e2a25" stroke-miterlimit="10" stroke-width="7.79" d="M215.5 206.4s9.2 18.8 20.8 28.5c0 0-24.3.4-39.3-11.8a117.6 117.6 0 1 1 18.6-16.7z"/><path fill="#2e2a25" d="M107.8 29.3a97 97 0 0 0-12.6 3.4L172 218.2a96.9 96.9 0 0 0 11.4-6.5 100.6 100.6 0 0 0-75.6-182.4zm5.1 12.3a87.7 87.7 0 0 1 65.4 157.9zm-17 90.6a65.5 65.5 0 0 1-8.7 12.5 66.2 66.2 0 0 1 14.9 2.6 66.1 66.1 0 0 1 41.2 35.3l16.7 40.6a102.7 102.7 0 0 1-12.6 3.4h-.1L133.5 193l-1-2.7-1.2-2.7A53.1 53.1 0 0 0 64.8 161l.6-.3-16.1 6.7 1 1.9a87.2 87.2 0 0 0 17.7 23 86 86 0 0 0 10.6 8.4 86.6 86.6 0 0 0 11.3 6.5v.2l-2.5 6-.3.7-2.1 5-4.6-2.3-.6-.3-5-2.9-1.2-.7A99.3 99.3 0 0 1 41 179l-2.4-4.4-1.2-2.3-.7-1.4-1.9-4.3v-.3c-.6-1.5-1.2-3-1.7-4.5l-.5-1.5-.8-2.5c-.5-1.6-.9-3.2-1.4-4.8a99.5 99.5 0 0 1-.8-46.9l.3-1.4c.4-1.9.9-3.7 1.5-5.6l.2-.6c.5-1.7 1-3.3 1.6-4.9l12 5a87 87 0 0 0-3.4 12.6 84.9 84.9 0 0 0-1.8 13.5 86.3 86.3 0 0 0 3.8 28.7l.6 2 11.7-4.8.6-.2 1.6-.6 1.6-.7.6-.3A53.1 53.1 0 0 0 88 83.2l-1-2.7-1.2-2.7-14-33.6a100.8 100.8 0 0 1 11.3-6.5l16.8 40.7a65.5 65.5 0 0 1 1.3 40.8 64.9 64.9 0 0 1-5.4 13.1z"/></symbol><symbol id="mail" viewBox="0 0 256 256"><path fill="#6b1e74" d="M128.3 2a126 126 0 0 0-2.4 252h2.4a124.6 124.6 0 0 0 48.3-9.6 139.8 139.8 0 0 0 15.5-7.7A126.1 126.1 0 0 0 128.3 2zm73.6 73.3l-73.6 46.2-73.6-46.2zm12.5 107H41.9v-96l71.4 44.8 14.9 9.3 11.7-7.2 74.6-46.9z"/></symbol><symbol id="phone" viewBox="0 0 256 256"><path fill="#231f20" d="M103 30.6h-.5l-.3.2h1zm58.8 196.2h-.2v.2l3.2-.6z"/><path fill="#6b1e74" d="M128.2 2C58.8 2 2.2 58.4 2.2 128s56.6 126 126 126 126-56.6 126-126a126 126 0 0 0-126-126zm53.4 214.1a29 29 0 0 1-8.8 7l-2.4 1.3a6.7 6.7 0 0 0-1.6.6l-.5.2h-.2a27.7 27.7 0 0 1-3.4 1.1l-3 .5h-.2l-.6.2a15.5 15.5 0 0 1-2.7.2c-7.7 0-15.8-3-24.6-9h-.6l-.3-.6c-18.9-13.3-37.7-39.3-50.4-69.9-12-28.8-17.1-58.4-14.2-81.1q1.7-14.4 7.7-23.5a33.4 33.4 0 0 1 26.1-12.3h2.2l3.7.5a18.7 18.7 0 0 1 2.9.6A27.6 27.6 0 0 1 114 33a34.1 34.1 0 0 1 14.1 10.2 33.5 33.5 0 0 1 7.7 21.4 33.9 33.9 0 0 1-33.9 33.9 20.4 20.4 0 0 1-3-.2 212.1 212.1 0 0 0 11.7 37.7 210.7 210.7 0 0 0 19.3 36.3 34 34 0 0 1 26.7-13 33.7 33.7 0 0 1 32.2 23.7l.6 1.3-.2.2a33.7 33.7 0 0 1 1.3 9 33 33 0 0 1-8.9 22.6z"/><path fill="#231f20" d="M103 30.6h-.5l-.3.2h1zm58.8 196.2h-.2v.2l3.2-.6z"/><path fill="#231f20" d="M164.9 226.3l-3.2.6v-.2h.2z"/></symbol><symbol id="white-logo" viewBox="0 0 256 256"><style>.st0{fill:#fff}.st1{fill:#2e2a25}</style><path id="speech-bubble" d="M249.5 134.3c-1.4 26.8-11.8 52.5-29.3 72.8 2.8 5.2 10.1 17.8 18.6 24.9l8 6.7-10.5.2c-1 0-23.5.3-39.4-10.9-20.4 14-44.1 21.3-68.5 21.3-6.5 0-13.1-.5-19.7-1.6-32-5.2-60.1-22.5-79.1-48.8-19-26.3-26.6-58.5-21.4-90.5 5.2-32 22.5-60.1 48.8-79.1 54.4-39.3 130.5-27 169.7 27.3 16.2 22.5 24.3 50 22.8 77.7z" class="st0"/><path id="KD" d="M107.8 29.3c-4.3.8-8.5 2-12.6 3.4L172 218.2c3.9-1.9 7.8-4.1 11.4-6.5 46.3-30.7 58.9-93.2 28.1-139.5-22.6-34-63.6-51-103.7-42.9zm5.1 12.3c47.8-8 93 24.2 101 72 5.5 33.1-8.3 66.4-35.6 85.9L112.9 41.6zm-17 90.6c-2.4 4.5-5.3 8.7-8.7 12.5 5 .3 10 1.2 14.9 2.6 18.2 5.3 33.2 18.2 41.2 35.3l16.7 40.6c-4.1 1.4-8.3 2.5-12.6 3.4h-.1L133.5 193l-1-2.7-1.2-2.7c-12-24.7-40.8-36.3-66.5-26.6l.6-.3-16.1 6.7 1 1.9c4.6 8.6 10.6 16.4 17.7 23 3.3 3.1 6.9 5.9 10.6 8.4 3.6 2.4 7.4 4.6 11.3 6.5v.2l-2.5 6-.3.7-2.1 5-4.6-2.3-.6-.3-5-2.9-1.2-.7C60.2 204.4 49 192.7 41 179l-2.4-4.4-1.2-2.3-.7-1.4-1.9-4.3v-.3c-.6-1.5-1.2-3-1.7-4.5l-.5-1.5-.8-2.5c-.5-1.6-.9-3.2-1.4-4.8-4-15.3-4.3-31.4-.8-46.9l.3-1.4c.4-1.9.9-3.7 1.5-5.6l.2-.6c.5-1.7 1-3.3 1.6-4.9l12 5c-1.4 4.1-2.6 8.3-3.4 12.6-1 4.4-1.6 9-1.8 13.5-.4 9.7.9 19.4 3.8 28.7l.6 2 11.7-4.8.6-.2 1.6-.6 1.6-.7.6-.3C85.1 137.2 97 108.9 88 83.2l-1-2.7-1.2-2.7-14-33.6c3.6-2.4 7.4-4.6 11.3-6.5l16.8 40.7c4.8 13.1 5.2 27.4 1.3 40.8-1.3 4.6-3.1 8.9-5.4 13.1l.1-.1z" class="st1"/></symbol><symbol id="speech-left" viewBox="0 0 256 256"><path fill="none" stroke="#2e2a25" stroke-miterlimit="10" stroke-width="8.52" d="M10.5 199.1h205a30.1 30.1 0 0 0 30-30V86.9a30.1 30.1 0 0 0-30-30H62.2a30.1 30.1 0 0 0-30 30v74.7z"/></symbol><symbol id="speech-center" viewBox="0 0 256 256"><path fill="none" stroke="#2e2a25" stroke-miterlimit="10" stroke-width="9.39" d="M245.5 62.1v90.6a33.1 33.1 0 0 1-33 33h-60.7L128 227l-23.8-41.3H43.5a33.1 33.1 0 0 1-33-33V62.1a33.1 33.1 0 0 1 33-33h169a33.1 33.1 0 0 1 33 33z"/></symbol><symbol id="speech-right" viewBox="0 0 256 256"><path fill="none" stroke="#2e2a25" stroke-miterlimit="10" stroke-width="8.52" d="M245.5 199.1h-205a30.1 30.1 0 0 1-30-30V86.9a30.1 30.1 0 0 1 30-30h153.3a30.1 30.1 0 0 1 30 30v74.7z"/></symbol></svg>