<svg id="Layer_1" width="256" height="256" data-name="Layer 1" viewBox="0 0 256 256">
  <path fill="#2e2a25" stroke="#2e2a25" stroke-miterlimit="10" stroke-width="6" d="M195.4 159.1s7.1 14.5 16 22c0 0-18.7.3-30.3-9.1a90.5 90.5 0 1 1 14.3-12.9z"/>
  <path fill="#fffffe" d="M112.5 22.6a74.7 74.7 0 0 0-9.7 2.6L162 168.1a74.7 74.7 0 0 0 8.7-5 77.5 77.5 0 0 0-58.2-140.5zm3.9 9.4a67.5 67.5 0 0 1 50.4 121.6z"/>
  <path fill="#fffffe" d="M103.3 101.9a50.5 50.5 0 0 1-6.7 9.6 51 51 0 0 1 11.4 2 50.9 50.9 0 0 1 31.7 27.2l13 31.3a79.1 79.1 0 0 1-9.7 2.6h-.1l-10.7-25.9-.8-2.1-.9-2.1A40.9 40.9 0 0 0 79.3 124l.5-.2-12.4 5.2.8 1.5a67.2 67.2 0 0 0 13.6 17.7 66.2 66.2 0 0 0 8.1 6.4 66.7 66.7 0 0 0 8.7 5v.2l-1.9 4.6-.2.5-1.6 4-3.6-1.9-.4-.2-3.9-2.3-.9-.6A76.5 76.5 0 0 1 61 138l-1.9-3.4-.9-1.8-.5-1.1-1.5-3.3v-.2l-1.3-3.4-.4-1.2-.6-1.9c-.4-1.2-.7-2.4-1-3.7a76.6 76.6 0 0 1-.9-36.1l.2-1.1c.3-1.4.7-2.9 1.2-4.3V76c.4-1.3.8-2.5 1.3-3.8l9.4 3.8a67 67 0 0 0-2.7 9.7A65.4 65.4 0 0 0 60.2 96a66.5 66.5 0 0 0 2.9 22.1l.5 1.5 9-3.7.5-.2 1.2-.5 1.2-.5.5-.2a40.9 40.9 0 0 0 21.2-50.4l-.8-2.1-.9-2-10.7-25.9a77.6 77.6 0 0 1 8.7-5l13 31.3a50.9 50.9 0 0 1-3.2 41.5z"/>
  <path fill="#2e2a25" d="M48.1 208.1l3.7-5.1a8.2 8.2 0 0 1 1.5-1.6l-1.9-.2a6.8 6.8 0 0 1-.2-1.6h6.2a4.9 4.9 0 0 1-.4 1.6l-1.6.2-5.6 7.1 6.5 8.2H58a5.8 5.8 0 0 1-.3 1.8l-3 .5-7-9.3h-1.1v7.1l2.2.3a4.6 4.6 0 0 1 .1 1.5h-7.2a6.4 6.4 0 0 1 .3-1.6l2.1-.4v-15.1l-2-.2a5.9 5.9 0 0 1-.1-1.5h6.6a4.1 4.1 0 0 1-.1 1.5l-2 .2v6.7z"/>
  <path fill="#2e2a25" d="M66.6 216.9a4.1 4.1 0 0 1-3.8 2.1 3.5 3.5 0 0 1-3.8-3.6c0-2.8 2.3-4.2 5-4.2a6.7 6.7 0 0 1 2.5.5v-1.5c0-2-.9-3-2.6-3a8.6 8.6 0 0 0-3.9 1.3 2.3 2.3 0 0 1-.1-.9 3 3 0 0 1 .3-1.3 11 11 0 0 1 4.4-.9c2.9 0 4.2 1.4 4.2 5.1v5.2a2.4 2.4 0 0 0 .4 1.4l1.9-.3a1.2 1.2 0 0 1 0 .3 2.9 2.9 0 0 1-.3 1.2 6.8 6.8 0 0 1-2.9.8 2.9 2.9 0 0 1-1.1-2.1zm-.1-4.1l-1.9-.2c-2.1 0-3.3.9-3.3 2.4a2.2 2.2 0 0 0 2.5 2.2 3.4 3.4 0 0 0 2.7-1.3z"/>
  <path fill="#2e2a25" d="M76.9 208.1a3.6 3.6 0 0 1 3.5-2.9l1.2.2a3.5 3.5 0 0 1 .4 1.6 3 3 0 0 1-.1.7 3.7 3.7 0 0 0-1.8-.5 3.3 3.3 0 0 0-3.1 2.2v7.2a13.4 13.4 0 0 1 2.7.5 3.8 3.8 0 0 1 .1 1.2h-7.3a3.7 3.7 0 0 1 .4-1.2l1.7-.5V207h-2a3.1 3.1 0 0 1 .5-1.4 7.1 7.1 0 0 1 2.2-.4l1.3.2v2.6z"/>
  <path fill="#2e2a25" d="M86 212.4c.1 2.9 1.9 4.7 4.4 4.7a12.4 12.4 0 0 0 3.8-.8 2.9 2.9 0 0 1-.4 1.5 9.3 9.3 0 0 1-4.3 1.1c-3.9 0-6.1-2.9-6.1-6.6s2.5-7.1 6.2-7.1 4.6 2.3 4.6 5.7a13.1 13.1 0 0 1-.1 1.4zm5.9-1.6c.2-1.9-.4-4.1-2.6-4.1s-3.2 1.7-3.3 4.1z"/>
  <path fill="#2e2a25" d="M101 216.8l2 .4a4.1 4.1 0 0 1 .1 1.3h-6.6a3.7 3.7 0 0 1 .4-1.2l1.7-.5v-9.6h-2a3.1 3.1 0 0 1 .5-1.4 6.8 6.8 0 0 1 2.2-.4l1.3.2v2h.3a4.8 4.8 0 0 1 4.3-2.3c2.1 0 4 .7 4 4.9 0 2.3-.1 4.5-.2 6.8l2.2.4a3.8 3.8 0 0 1 .1.8 2.6 2.6 0 0 1 0 .5H105a3.8 3.8 0 0 1 .4-1.2l1.5-.5v-6.3c0-2.1-.6-3.4-2.5-3.4a4.8 4.8 0 0 0-3.4 1.7z"/>
  <path fill="#2e2a25" d="M120.6 201.6h-2a6.4 6.4 0 0 1-.1-1.6c2.1-.2 5.1-.4 7.1-.4 5.2 0 9.5 3.2 9.5 9.2s-4.1 9.8-8.7 9.8h-8.3a7.9 7.9 0 0 1 .3-1.4l2.1-.4zm2.5 15.2h2.6c4.3 0 6.8-2.3 6.8-8s-3.3-7.7-7.3-7.7h-2.1z"/>
  <path fill="#2e2a25" d="M149.8 211.8c0 4.5-2.4 7.1-6.1 7.1s-6.2-2.4-6.2-7.1 2.6-6.7 6.2-6.7 6.1 2.5 6.1 6.7zm-6.1 5.5c2.5 0 3.7-2.1 3.7-5.5s-1.4-5.1-3.7-5.1-3.7 2-3.7 5.1 1.3 5.5 3.6 5.5z"/>
  <path fill="#2e2a25" d="M161.8 207.1h-1.9a3.1 3.1 0 0 1 .5-1.4 7.2 7.2 0 0 1 2.4-.4l1.4.2v9.4a7.9 7.9 0 0 0 .2 1.9h2.1a1.7 1.7 0 0 1 0 .4 3.3 3.3 0 0 1-.2 1.1 15.7 15.7 0 0 1-3.7.5 5.6 5.6 0 0 1-.5-2.1h-.1a4.8 4.8 0 0 1-4.3 2.3c-2.1 0-4-.7-4-4.9 0-2.3 0-4.6.1-6.9h-2.1a3.4 3.4 0 0 1 .5-1.4 7.3 7.3 0 0 1 2.5-.4l1.4.2v8.2c0 2.1.6 3.4 2.5 3.4a4.6 4.6 0 0 0 3.3-1.6z"/>
  <path fill="#2e2a25" d="M170.6 218.2a2 2 0 0 1-1.3-1.9 2.8 2.8 0 0 1 1.5-2.3 4.2 4.2 0 0 1-1.8-4c0-3 2.2-4.8 5.2-4.8a6.1 6.1 0 0 1 3 .8 6.5 6.5 0 0 1 2.6-.5l1.2.2a7.6 7.6 0 0 1 .2 1.6h-2.7a4.9 4.9 0 0 1 .8 2.8c0 3-1.9 4.8-5.2 4.8a7 7 0 0 1-2.2-.3 1.7 1.7 0 0 0-.4 1.1c0 1.1 1.5 1.2 3.9 1.2s5.5.7 5.5 3.6-3.1 4.8-6.8 4.8-6.1-1.3-6.1-4a3.1 3.1 0 0 1 2.3-2.9zm-.1 2.7c0 1.9 2.2 2.8 4.2 2.8s4.1-.9 4.1-2.8-1-2-3.8-2a14.8 14.8 0 0 1-3.1-.3 2.4 2.4 0 0 0-1.4 2.3zm3.7-7.5c1.9 0 2.8-1.3 2.8-3.4s-1.1-3.4-2.8-3.4-2.8 1.2-2.8 3.4 1.1 3.4 2.8 3.4z"/>
  <path fill="#2e2a25" d="M182.7 200.5a3.1 3.1 0 0 1 .5-1.4 7.9 7.9 0 0 1 2.4-.4l1.4.2v17.9l2.2.4a3.8 3.8 0 0 1 .1.8 2.6 2.6 0 0 1 0 .5h-6.7a3.8 3.8 0 0 1 .4-1.2l1.7-.5v-16.3z"/>
  <path fill="#2e2a25" d="M198.7 216.9a4.1 4.1 0 0 1-3.8 2.1 3.5 3.5 0 0 1-3.8-3.6c0-2.8 2.3-4.2 5-4.2a6.7 6.7 0 0 1 2.5.5v-1.5c0-2-.9-3-2.6-3a8.6 8.6 0 0 0-3.9 1.3 2.3 2.3 0 0 1-.1-.9 3 3 0 0 1 .3-1.3 11 11 0 0 1 4.4-.9c2.9 0 4.2 1.4 4.2 5.1v5.2a2.4 2.4 0 0 0 .4 1.4l1.9-.3a1.2 1.2 0 0 1 0 .3 2.9 2.9 0 0 1-.3 1.2 6.8 6.8 0 0 1-2.9.8 2.9 2.9 0 0 1-1.1-2.1zm-.1-4.1l-1.9-.2c-2.1 0-3.3.9-3.3 2.4a2.2 2.2 0 0 0 2.5 2.2 3.4 3.4 0 0 0 2.7-1.3z"/>
  <path fill="#2e2a25" d="M211.5 206.9a4.4 4.4 0 0 0-1.6-.3c-1.4 0-2.2.6-2.2 1.6 0 3 6.3 2.1 6.3 6.8 0 2.8-2.3 3.9-4.9 3.9a8.2 8.2 0 0 1-4.1-1 6 6 0 0 1-.1-1.3 7.8 7.8 0 0 1 .3-1.9l1.9.2v1.9a4.3 4.3 0 0 0 2.3.6 2 2 0 0 0 2.3-2c0-3.2-6.3-2.1-6.3-6.8 0-2 1.8-3.4 4.5-3.4a10.4 10.4 0 0 1 3.8.7 4 4 0 0 1 .1.8 9 9 0 0 1-.3 2.2 4 4 0 0 1-1.8-.4z"/>
  <path fill="#2e2a25" d="M75.5 226.5a7 7 0 0 0-2.9-.6c-3.6 0-6.5 2.7-6.5 7.9s2.6 8.1 6.5 8.1a17.2 17.2 0 0 0 5-.9 4.4 4.4 0 0 1-.3 1.7 13.6 13.6 0 0 1-5.7 1.3c-4.8 0-8.1-4-8.1-9.5s4.2-10.3 9.3-10.3a11.4 11.4 0 0 1 5 1 28.2 28.2 0 0 1-.3 4.5 5.2 5.2 0 0 1-1.9-.4z"/>
  <path fill="#2e2a25" d="M91.8 236.8c0 4.5-2.4 7.1-6.1 7.1s-6.2-2.4-6.2-7.1 2.6-6.7 6.2-6.7 6.1 2.5 6.1 6.7zm-6.1 5.5c2.5 0 3.7-2.1 3.7-5.5s-1.4-5.1-3.7-5.1-3.7 2-3.7 5.1 1.4 5.5 3.7 5.5z"/>
  <path fill="#2e2a25" d="M98.6 241.8l2 .4a4.1 4.1 0 0 1 .1 1.3h-6.6a3.7 3.7 0 0 1 .4-1.2l1.7-.5v-9.6h-2a3.1 3.1 0 0 1 .5-1.4 6.8 6.8 0 0 1 2.2-.4l1.3.2v2h.3a4.8 4.8 0 0 1 4.3-2.3c2.1 0 4 .7 4 4.9 0 2.3-.1 4.5-.2 6.8l2.2.4a3.8 3.8 0 0 1 .1.8 2.6 2.6 0 0 1 0 .5h-6.4a3.7 3.7 0 0 1 .4-1.2l1.5-.5v-6.3c0-2.1-.6-3.4-2.5-3.4a4.8 4.8 0 0 0-3.4 1.7z"/>
  <path fill="#2e2a25" d="M117.5 231.9a4.4 4.4 0 0 0-1.6-.3c-1.4 0-2.2.6-2.2 1.6 0 3 6.3 2.1 6.3 6.8 0 2.8-2.3 3.9-4.9 3.9a8.2 8.2 0 0 1-4.1-1 6 6 0 0 1-.1-1.3 7.8 7.8 0 0 1 .3-1.9l1.9.2v1.9a4.3 4.3 0 0 0 2.3.6 2 2 0 0 0 2.3-2c0-3.2-6.3-2.1-6.3-6.8 0-2 1.8-3.4 4.5-3.4a10.4 10.4 0 0 1 3.8.7 4 4 0 0 1 .1.8 9 9 0 0 1-.3 2.2 4 4 0 0 1-1.8-.4z"/>
  <path fill="#2e2a25" d="M131.8 232.1h-1.9a3.1 3.1 0 0 1 .5-1.4 7.2 7.2 0 0 1 2.4-.4l1.4.2v9.4a7.9 7.9 0 0 0 .2 1.9h2.1a1.7 1.7 0 0 1 0 .4 3.3 3.3 0 0 1-.2 1.1 15.7 15.7 0 0 1-3.7.5 5.6 5.6 0 0 1-.5-2.1h-.1a4.8 4.8 0 0 1-4.3 2.3c-2.1 0-4-.7-4-4.9 0-2.3 0-4.6.1-6.9h-2.1a3.4 3.4 0 0 1 .5-1.4 7.3 7.3 0 0 1 2.5-.4l1.4.2v8.2c0 2.1.6 3.4 2.5 3.4a4.6 4.6 0 0 0 3.3-1.6z"/>
  <path fill="#2e2a25" d="M138.1 225.5a3.1 3.1 0 0 1 .5-1.4 7.9 7.9 0 0 1 2.4-.4l1.4.2v17.9l2.2.4a3.8 3.8 0 0 1 .1.8 2.6 2.6 0 0 1 0 .5H138a3.8 3.8 0 0 1 .4-1.2l1.7-.5v-16.3z"/>
  <path fill="#2e2a25" d="M148.2 227.3a4.8 4.8 0 0 1 1.8-.4v3.7h3.9a7 7 0 0 1 .1 1.6h-4v7.4c0 1.8.2 2.5 1.8 2.5a10.6 10.6 0 0 0 2.5-.4 1.8 1.8 0 0 1 0 .4 2.4 2.4 0 0 1-.3 1.1 8.7 8.7 0 0 1-3.3.7c-2.1 0-3.1-1.1-3.1-3.9s0-5.1.1-7.8h-1.9a4.3 4.3 0 0 1 .3-1.4l1.6-.5z"/>
  <path fill="#2e2a25" d="M155.8 232.1a3.1 3.1 0 0 1 .5-1.4 7.9 7.9 0 0 1 2.4-.4l1.4.2v11.3l2.1.4a3.8 3.8 0 0 1 .1.8 2.6 2.6 0 0 1 0 .5h-6.6a3.7 3.7 0 0 1 .4-1.2l1.7-.5v-9.6zm4.7-6.3a1.4 1.4 0 0 1-1.5 1.6 1.4 1.4 0 0 1-1.5-1.6 1.4 1.4 0 0 1 1.5-1.5 1.4 1.4 0 0 1 1.5 1.6z"/>
  <path fill="#2e2a25" d="M168.3 241.8l2 .4a4.1 4.1 0 0 1 .1 1.3h-6.5a3.7 3.7 0 0 1 .4-1.2l1.7-.5v-9.6h-2a3.1 3.1 0 0 1 .5-1.4 6.8 6.8 0 0 1 2.2-.4l1.3.2v2h.3a4.8 4.8 0 0 1 4.3-2.3c2.1 0 4 .7 4 4.9 0 2.3-.1 4.5-.2 6.8l2.2.4a3.8 3.8 0 0 1 .1.8 2.6 2.6 0 0 1 0 .5h-6.4a3.8 3.8 0 0 1 .4-1.2l1.5-.5v-6.3c0-2.1-.6-3.4-2.5-3.4a4.8 4.8 0 0 0-3.4 1.7z"/>
  <path fill="#2e2a25" d="M182.6 243.2a2 2 0 0 1-1.3-1.9 2.8 2.8 0 0 1 1.5-2.3 4.2 4.2 0 0 1-1.8-4c0-3 2.2-4.8 5.2-4.8a6.1 6.1 0 0 1 3 .8 6.5 6.5 0 0 1 2.6-.5l1.2.2a7.6 7.6 0 0 1 .2 1.6h-2.7a4.9 4.9 0 0 1 .8 2.8c0 3-1.9 4.8-5.2 4.8a7 7 0 0 1-2.2-.3 1.7 1.7 0 0 0-.4 1.1c0 1.1 1.5 1.2 3.9 1.2s5.5.7 5.5 3.6-3.1 4.8-6.8 4.8-6.1-1.3-6.1-4a3.1 3.1 0 0 1 2.3-2.9zm-.1 2.7c0 1.9 2.2 2.8 4.2 2.8s4.1-.9 4.1-2.8-1-2-3.8-2a14.8 14.8 0 0 1-3.1-.3 2.4 2.4 0 0 0-1.4 2.3zm3.7-7.5c1.9 0 2.8-1.3 2.8-3.4s-1.1-3.4-2.8-3.4-2.8 1.2-2.8 3.4 1.1 3.4 2.8 3.4z"/>
</svg>
