<svg id="Layer_1" width="256" height="256" data-name="Layer 1" viewBox="0 0 256 256">
  <path fill="#67635f" stroke="#67635f" stroke-miterlimit="10" stroke-width="3" d="M165.5 137.2v28.9a10.6 10.6 0 0 1-10.5 10.6h-19.4l-7.6 13.2-7.6-13.2H101a10.6 10.6 0 0 1-10.6-10.6v-28.9a10.6 10.6 0 0 1 10.6-10.6h54a10.6 10.6 0 0 1 10.5 10.6z"/>
  <path fill="#494541" stroke="#494541" stroke-miterlimit="10" stroke-width="3" d="M146.8 78.3v28.9a10.6 10.6 0 0 1-10.6 10.6H64.1l7.6-13.2V78.3a10.6 10.6 0 0 1 10.5-10.5h54a10.6 10.6 0 0 1 10.6 10.5z"/>
  <path fill="#2e2a25" stroke="#2e2a25" stroke-miterlimit="10" stroke-width="3" d="M191.9 59h-72.1a10.6 10.6 0 0 1-10.6-10.6V19.5a10.6 10.6 0 0 1 10.6-10.6h54a10.6 10.6 0 0 1 10.6 10.6v26.3z"/>
  <path fill="#fffffe" d="M121.3 159a2.5 2.5 0 0 1-2.6 2.8 2.5 2.5 0 0 1-2.7-2.8 2.5 2.5 0 0 1 2.7-2.6 2.5 2.5 0 0 1 2.6 2.6zm9.4 0a2.5 2.5 0 0 1-2.6 2.8 2.5 2.5 0 0 1-2.7-2.8 2.5 2.5 0 0 1 2.7-2.6 2.5 2.5 0 0 1 2.6 2.6zm9.4 0a2.5 2.5 0 0 1-2.6 2.8 2.5 2.5 0 0 1-2.7-2.8 2.5 2.5 0 0 1 2.7-2.6 2.5 2.5 0 0 1 2.6 2.6z"/>
  <path fill="#fffffe" d="M110.7 95.9h-3.1l-1.2-13.6a14.7 14.7 0 0 1 3.7-.5h1.6zm.9 4.5a2.3 2.3 0 0 1-2.4 2.6 2.3 2.3 0 0 1-2.5-2.6 2.3 2.3 0 0 1 2.5-2.4 2.3 2.3 0 0 1 2.4 2.4z"/>
  <path fill="#fffffe" d="M148.3 37.9h-3.1L144 24.4a14.7 14.7 0 0 1 3.7-.5h1.6zm.9 4.5a2.3 2.3 0 0 1-2.4 2.6 2.3 2.3 0 0 1-2.5-2.6 2.3 2.3 0 0 1 2.5-2.4 2.3 2.3 0 0 1 2.4 2.4z"/>
  <path fill="#2e2a25" d="M46.8 208.9l3.7-5.1a8.2 8.2 0 0 1 1.5-1.6l-2-.2a6.8 6.8 0 0 1-.2-1.6H56a4.9 4.9 0 0 1-.4 1.6l-1.6.2-5.6 7.1 6.5 8.2h1.8a5.8 5.8 0 0 1-.3 1.8l-3 .5-7-9.3h-1.1v7.1l2.2.3a4.6 4.6 0 0 1 .1 1.5h-7.3a6.4 6.4 0 0 1 .3-1.4l2.1-.4v-15.4l-2-.2a5.9 5.9 0 0 1-.1-1.5h6.6a4.1 4.1 0 0 1-.1 1.5l-2 .2v6.7z"/>
  <path fill="#2e2a25" d="M65.3 217.6a4.1 4.1 0 0 1-3.8 2.1 3.5 3.5 0 0 1-3.8-3.6c0-2.8 2.3-4.2 5-4.2a6.7 6.7 0 0 1 2.5.5v-1.5c0-2-.9-3-2.6-3a8.6 8.6 0 0 0-3.9 1.3 2.3 2.3 0 0 1-.1-.9 3 3 0 0 1 .3-1.3 11 11 0 0 1 4.4-.9c2.9 0 4.2 1.4 4.2 5.1v5.2a2.4 2.4 0 0 0 .4 1.4l1.9-.3a1.2 1.2 0 0 1 0 .3 2.9 2.9 0 0 1-.3 1.2 6.8 6.8 0 0 1-2.9.8 2.9 2.9 0 0 1-1.1-2.1zm-.1-4.1l-1.9-.2c-2.1 0-3.3.9-3.3 2.4a2.2 2.2 0 0 0 2.5 2.2 3.4 3.4 0 0 0 2.7-1.3z"/>
  <path fill="#2e2a25" d="M75.5 208.8a3.6 3.6 0 0 1 3.5-2.9l1.2.2a3.5 3.5 0 0 1 .4 1.6 3 3 0 0 1-.1.7 3.7 3.7 0 0 0-1.8-.5 3.3 3.3 0 0 0-3.1 2.2v7.2a13.4 13.4 0 0 1 2.7.5 3.8 3.8 0 0 1 .1 1.2h-7.3a3.7 3.7 0 0 1 .4-1.2l1.7-.5v-9.6h-2a3.1 3.1 0 0 1 .5-1.4 7.1 7.1 0 0 1 2.2-.4l1.3.2v2.6z"/>
  <path fill="#2e2a25" d="M84.6 213.1c.1 2.9 1.9 4.7 4.4 4.7a12.4 12.4 0 0 0 3.8-.8 2.9 2.9 0 0 1-.4 1.5 9.3 9.3 0 0 1-4.3 1.1c-3.9 0-6.1-2.9-6.1-6.6s2.5-7.1 6.2-7.1 4.6 2.3 4.6 5.7a13.1 13.1 0 0 1-.1 1.4zm5.9-1.6c.2-1.9-.4-4.1-2.6-4.1s-3.2 1.7-3.3 4.1z"/>
  <path fill="#2e2a25" d="M99.7 217.5l2 .4a4.1 4.1 0 0 1 .1 1.3h-6.6a3.7 3.7 0 0 1 .4-1.2l1.7-.5v-9.6h-2a3.1 3.1 0 0 1 .5-1.4 6.8 6.8 0 0 1 2.2-.4l1.3.2v2h.3a4.8 4.8 0 0 1 4.3-2.3c2.1 0 4 .7 4 4.9 0 2.3-.1 4.5-.2 6.8l2.2.4a3.8 3.8 0 0 1 .1.8 2.6 2.6 0 0 1 0 .5h-6.4a3.8 3.8 0 0 1 .4-1.2l1.5-.5v-6.3c0-2.1-.6-3.4-2.5-3.4a4.8 4.8 0 0 0-3.4 1.7z"/>
  <path fill="#2e2a25" d="M119.3 202.3h-2a6.4 6.4 0 0 1-.1-1.6c2.1-.2 5.1-.4 7.1-.4 5.2 0 9.5 3.2 9.5 9.2s-4.1 9.8-8.7 9.8h-8.3a7.9 7.9 0 0 1 .3-1.4l2.1-.4zm2.5 15.2h2.6c4.3 0 6.8-2.3 6.8-8s-3.3-7.7-7.3-7.7h-2.1z"/>
  <path fill="#2e2a25" d="M148.4 212.6c0 4.5-2.4 7.1-6.1 7.1s-6.2-2.4-6.2-7.1 2.6-6.7 6.2-6.7 6.1 2.4 6.1 6.7zm-6.1 5.5c2.5 0 3.7-2.1 3.7-5.5s-1.4-5.1-3.7-5.1-3.7 2-3.7 5.1 1.4 5.4 3.7 5.4z"/>
  <path fill="#2e2a25" d="M160.5 207.9h-1.9a3.1 3.1 0 0 1 .5-1.4 7.2 7.2 0 0 1 2.4-.4l1.4.2v9.4a7.9 7.9 0 0 0 .2 1.9h2.1a1.7 1.7 0 0 1 0 .4 3.3 3.3 0 0 1-.2 1.1 15.7 15.7 0 0 1-3.7.5 5.6 5.6 0 0 1-.5-2.1h-.1a4.8 4.8 0 0 1-4.3 2.3c-2.1 0-4-.7-4-4.9 0-2.3 0-4.6.1-6.9h-2.1a3.4 3.4 0 0 1 .5-1.4 7.3 7.3 0 0 1 2.5-.4l1.4.2v8.2c0 2.1.6 3.4 2.5 3.4a4.6 4.6 0 0 0 3.3-1.6z"/>
  <path fill="#2e2a25" d="M169.3 218.9a2 2 0 0 1-1.3-1.9 2.8 2.8 0 0 1 1.5-2.3 4.2 4.2 0 0 1-1.7-3.8c0-3 2.2-4.8 5.2-4.8a6.1 6.1 0 0 1 3 .8 6.5 6.5 0 0 1 2.6-.5l1.2.2a7.6 7.6 0 0 1 .2 1.6h-2.7a4.9 4.9 0 0 1 .8 2.8c0 3-1.9 4.8-5.2 4.8a7 7 0 0 1-2.2-.3 1.7 1.7 0 0 0-.4 1.1c0 1.1 1.5 1.2 3.9 1.2s5.5.7 5.5 3.6-3.1 4.8-6.8 4.8-6.1-1.3-6.1-4a3.1 3.1 0 0 1 2.3-2.9zm-.1 2.7c0 1.9 2.2 2.8 4.2 2.8s4.1-.9 4.1-2.8-1-2-3.8-2a14.8 14.8 0 0 1-3.1-.3 2.4 2.4 0 0 0-1.4 2.3zm3.7-7.5c1.9 0 2.8-1.3 2.8-3.4s-1.1-3.4-2.8-3.4-2.8 1.2-2.8 3.4 1.1 3.4 2.8 3.4z"/>
  <path fill="#2e2a25" d="M181.4 201.3a3.1 3.1 0 0 1 .5-1.4 7.9 7.9 0 0 1 2.4-.4l1.4.2v17.9l2.2.4a3.8 3.8 0 0 1 .1.8 2.6 2.6 0 0 1 0 .5h-6.7a3.8 3.8 0 0 1 .4-1.2l1.7-.5v-16.3z"/>
  <path fill="#2e2a25" d="M197.4 217.6a4.1 4.1 0 0 1-3.8 2.1 3.5 3.5 0 0 1-3.8-3.6c0-2.8 2.3-4.2 5-4.2a6.7 6.7 0 0 1 2.5.5v-1.5c0-2-.9-3-2.6-3a8.6 8.6 0 0 0-3.9 1.3 2.3 2.3 0 0 1-.1-.9 3 3 0 0 1 .3-1.3 11 11 0 0 1 4.4-.9c2.9 0 4.2 1.4 4.2 5.1v5.2a2.4 2.4 0 0 0 .4 1.4l1.9-.3a1.2 1.2 0 0 1 0 .3 2.9 2.9 0 0 1-.3 1.2 6.8 6.8 0 0 1-2.9.8 2.9 2.9 0 0 1-1.1-2.1zm-.1-4.1l-1.9-.2c-2.1 0-3.3.9-3.3 2.4a2.2 2.2 0 0 0 2.5 2.2 3.4 3.4 0 0 0 2.7-1.3z"/>
  <path fill="#2e2a25" d="M210.2 207.6a4.4 4.4 0 0 0-1.6-.3c-1.4 0-2.2.6-2.2 1.6 0 3 6.3 2.1 6.3 6.8 0 2.8-2.3 3.9-4.9 3.9a8.2 8.2 0 0 1-4.1-1 6 6 0 0 1-.1-1.3 7.8 7.8 0 0 1 .3-1.9l1.9.2v1.9a4.3 4.3 0 0 0 2.3.6 2 2 0 0 0 2.3-2c0-3.2-6.3-2.1-6.3-6.8 0-2 1.8-3.4 4.5-3.4a10.4 10.4 0 0 1 3.8.7 4 4 0 0 1 .1.8 9 9 0 0 1-.3 2.2 4 4 0 0 1-1.8-.4z"/>
  <path fill="#2e2a25" d="M74.2 227.2a7 7 0 0 0-2.9-.6c-3.6 0-6.5 2.7-6.5 7.9s2.6 8.1 6.5 8.1a17.2 17.2 0 0 0 5-.9 4.4 4.4 0 0 1-.3 1.7 13.6 13.6 0 0 1-5.7 1.3c-4.8 0-8.1-4-8.1-9.5s4.2-10.3 9.3-10.3a11.4 11.4 0 0 1 5 1 28.2 28.2 0 0 1-.3 4.5 5.2 5.2 0 0 1-1.9-.4z"/>
  <path fill="#2e2a25" d="M90.5 237.6c0 4.5-2.4 7.1-6.1 7.1s-6.2-2.4-6.2-7.1 2.6-6.7 6.2-6.7 6.1 2.4 6.1 6.7zm-6.1 5.4c2.5 0 3.7-2.1 3.7-5.5s-1.4-5.1-3.7-5.1-3.7 2-3.7 5.1 1.4 5.5 3.7 5.5z"/>
  <path fill="#2e2a25" d="M97.3 242.5l2 .4a4.1 4.1 0 0 1 .1 1.3h-6.6a3.7 3.7 0 0 1 .4-1.2l1.7-.5v-9.6h-2a3.1 3.1 0 0 1 .5-1.4 6.8 6.8 0 0 1 2.2-.4l1.3.2v2h.3a4.8 4.8 0 0 1 4.3-2.3c2.1 0 4 .7 4 4.9 0 2.3-.1 4.5-.2 6.8l2.2.4a3.8 3.8 0 0 1 .1.8 2.6 2.6 0 0 1 0 .5h-6.4a3.7 3.7 0 0 1 .4-1.2l1.5-.5v-6.3c0-2.1-.6-3.4-2.5-3.4a4.8 4.8 0 0 0-3.4 1.7z"/>
  <path fill="#2e2a25" d="M116.1 232.6a4.4 4.4 0 0 0-1.6-.3c-1.4 0-2.2.6-2.2 1.6 0 3 6.3 2.1 6.3 6.8 0 2.8-2.3 3.9-4.9 3.9a8.2 8.2 0 0 1-4.1-1 6 6 0 0 1-.1-1.3 7.8 7.8 0 0 1 .3-1.9l1.9.2v1.9a4.3 4.3 0 0 0 2.3.6 2 2 0 0 0 2.3-2c0-3.2-6.3-2.1-6.3-6.8 0-2 1.8-3.4 4.5-3.4a10.4 10.4 0 0 1 3.8.7 4 4 0 0 1 .1.8 9 9 0 0 1-.3 2.2 4 4 0 0 1-1.8-.4z"/>
  <path fill="#2e2a25" d="M130.5 232.9h-1.9a3.1 3.1 0 0 1 .5-1.4 7.2 7.2 0 0 1 2.4-.4l1.4.2v9.4a7.9 7.9 0 0 0 .2 1.9h2.1a1.7 1.7 0 0 1 0 .4 3.3 3.3 0 0 1-.2 1.1 15.7 15.7 0 0 1-3.7.5 5.6 5.6 0 0 1-.5-2.1h-.1a4.8 4.8 0 0 1-4.3 2.3c-2.1 0-4-.7-4-4.9 0-2.3 0-4.6.1-6.9h-2.1a3.4 3.4 0 0 1 .5-1.4 7.3 7.3 0 0 1 2.5-.4l1.4.2v8.2c0 2.1.6 3.4 2.5 3.4a4.6 4.6 0 0 0 3.3-1.6z"/>
  <path fill="#2e2a25" d="M136.8 226.3a3.1 3.1 0 0 1 .5-1.4 7.9 7.9 0 0 1 2.4-.4l1.4.2v17.9l2.2.4a3.8 3.8 0 0 1 .1.8 2.6 2.6 0 0 1 0 .5h-6.7a3.8 3.8 0 0 1 .4-1.2l1.7-.5v-16.3z"/>
  <path fill="#2e2a25" d="M146.9 228.1a4.8 4.8 0 0 1 1.8-.4v3.7h3.9a7 7 0 0 1 .1 1.6h-4v7.4c0 1.8.2 2.5 1.8 2.5a10.6 10.6 0 0 0 2.5-.4 1.8 1.8 0 0 1 0 .4 2.4 2.4 0 0 1-.3 1.1 8.7 8.7 0 0 1-3.3.7c-2.1 0-3.1-1.1-3.1-3.9s0-5.1.1-7.8h-1.9a4.3 4.3 0 0 1 .3-1.4l1.6-.5z"/>
  <path fill="#2e2a25" d="M154.5 232.9a3.1 3.1 0 0 1 .5-1.4 7.9 7.9 0 0 1 2.4-.4l1.4.2v11.3l2.1.4a3.8 3.8 0 0 1 .1.8 2.6 2.6 0 0 1 0 .5h-6.6a3.7 3.7 0 0 1 .4-1.2l1.7-.5V233zm4.7-6.3a1.4 1.4 0 0 1-1.5 1.6 1.4 1.4 0 0 1-1.5-1.6 1.4 1.4 0 0 1 1.5-1.5 1.4 1.4 0 0 1 1.5 1.5z"/>
  <path fill="#2e2a25" d="M167 242.5l2 .4a4.1 4.1 0 0 1 .1 1.3h-6.5a3.7 3.7 0 0 1 .4-1.2l1.7-.5v-9.6h-2a3.1 3.1 0 0 1 .5-1.4 6.8 6.8 0 0 1 2.2-.4l1.3.2v2h.3a4.8 4.8 0 0 1 4.3-2.3c2.1 0 4 .7 4 4.9 0 2.3-.1 4.5-.2 6.8l2.2.4a3.8 3.8 0 0 1 .1.8 2.6 2.6 0 0 1 0 .5H171a3.8 3.8 0 0 1 .4-1.2l1.5-.5v-6.3c0-2.1-.6-3.4-2.5-3.4a4.8 4.8 0 0 0-3.4 1.7z"/>
  <path fill="#2e2a25" d="M181.3 243.9a2 2 0 0 1-1.3-1.9 2.8 2.8 0 0 1 1.5-2.3 4.2 4.2 0 0 1-1.7-3.8c0-3 2.2-4.8 5.2-4.8a6.1 6.1 0 0 1 3 .8 6.5 6.5 0 0 1 2.6-.5l1.2.2a7.6 7.6 0 0 1 .2 1.6h-2.7a4.9 4.9 0 0 1 .8 2.8c0 3-1.9 4.8-5.2 4.8a7 7 0 0 1-2.2-.3 1.7 1.7 0 0 0-.4 1.1c0 1.1 1.5 1.2 3.9 1.2s5.5.7 5.5 3.6-3.1 4.8-6.8 4.8-6.1-1.3-6.1-4a3.1 3.1 0 0 1 2.3-2.9zm-.1 2.7c0 1.9 2.2 2.8 4.2 2.8s4.1-.9 4.1-2.8-1-2-3.8-2a14.8 14.8 0 0 1-3.1-.3 2.4 2.4 0 0 0-1.4 2.3zm3.7-7.5c1.9 0 2.8-1.3 2.8-3.4s-1.1-3.4-2.8-3.4-2.8 1.2-2.8 3.4 1.1 3.4 2.8 3.4z"/>
</svg>
