<svg xmlns="http://www.w3.org/2000/svg" width="3.6in" height="3.6in" data-name="Layer 1" viewBox="0 0 256 256"><path fill="#231f20" d="M103 30.6h-.5l-.3.2h1zm58.8 196.2h-.2v.2l3.2-.6z"/><path fill="#6b1e74" d="M128.2 2C58.8 2 2.2 58.4 2.2 128s56.6 126 126 126 126-56.6 126-126a126 126 0 0 0-126-126zm53.4 214.1a29 29 0 0 1-8.8 7l-2.4 1.3a6.7 6.7 0 0 0-1.6.6l-.5.2h-.2a27.7 27.7 0 0 1-3.4 1.1l-3 .5h-.2l-.6.2a15.5 15.5 0 0 1-2.7.2c-7.7 0-15.8-3-24.6-9h-.6l-.3-.6c-18.9-13.3-37.7-39.3-50.4-69.9-12-28.8-17.1-58.4-14.2-81.1q1.7-14.4 7.7-23.5a33.4 33.4 0 0 1 26.1-12.3h2.2l3.7.5a18.7 18.7 0 0 1 2.9.6A27.6 27.6 0 0 1 114 33a34.1 34.1 0 0 1 14.1 10.2 33.5 33.5 0 0 1 7.7 21.4 33.9 33.9 0 0 1-33.9 33.9 20.4 20.4 0 0 1-3-.2 212.1 212.1 0 0 0 11.7 37.7 210.7 210.7 0 0 0 19.3 36.3 34 34 0 0 1 26.7-13 33.7 33.7 0 0 1 32.2 23.7l.6 1.3-.2.2a33.7 33.7 0 0 1 1.3 9 33 33 0 0 1-8.9 22.6z"/><path fill="#231f20" d="M103 30.6h-.5l-.3.2h1zm58.8 196.2h-.2v.2l3.2-.6z"/><path fill="#231f20" d="M164.9 226.3l-3.2.6v-.2h.2z"/></svg>